<?xml version="1.0" encoding="utf-8"?>
<!-- Generator: Adobe Illustrator 23.0.5, SVG Export Plug-In . SVG Version: 6.00 Build 0)  -->
<svg version="1.1" id="Layer_1" xmlns="http://www.w3.org/2000/svg" xmlns:xlink="http://www.w3.org/1999/xlink" x="0px" y="0px"
	 viewBox="0 0 367.1 118.1" style="enable-background:new 0 0 367.1 118.1;" xml:space="preserve">
<style type="text/css">
	.st0{fill:#FFFFFF;}
	.st1{fill:#F15A24;}
</style>
<g>
	<g>
		<g>
			<path class="st0" d="M76.2,100.8c-4.3,0-7.8-3.5-7.8-7.8c0-1.9-1.6-3.5-3.5-3.5H38.5c-4.3,0-7.8-3.5-7.8-7.8V25.1
				c0-4.3,3.5-7.8,7.8-7.8h22.6C73.7,17.3,84,27.6,84,40.2V93C84,97.3,80.5,100.8,76.2,100.8z M46.3,73.9h18.6
				c1.2,0,2.4,0.1,3.5,0.3v-34c0-4-3.3-7.3-7.3-7.3H46.3V73.9z"/>
		</g>
		<g>
			<path class="st0" d="M76.2,100.8c-4.3,0-7.8-3.5-7.8-7.8V40.2c0-12.6,10.3-22.9,22.9-22.9h22.6c4.3,0,7.8,3.5,7.8,7.8v56.6
				c0,4.3-3.5,7.8-7.8,7.8H87.5C85.6,89.5,84,91,84,93C84,97.3,80.5,100.8,76.2,100.8z M91.3,32.9c-4,0-7.3,3.3-7.3,7.3v34
				c1.1-0.2,2.3-0.3,3.5-0.3h18.6v-41H91.3z"/>
		</g>
	</g>
	<g>
		<g>
			<path class="st1" d="M194.7,28.6V76h-9.5l-21.5-32.5V76h-9.5V28.6h9.5l21.5,32.5V28.6H194.7z"/>
		</g>
		<g>
			<path class="st1" d="M220.7,76.6c-10.8,0-19.1-7.6-19.1-19.4c0-11.9,8.5-19.4,19.3-19.4s19.3,7.5,19.3,19.4
				C240.3,69.1,231.6,76.6,220.7,76.6z M220.7,68.4c5,0,9.8-3.7,9.8-11.1c0-7.5-4.7-11.1-9.7-11.1c-5,0-9.6,3.6-9.6,11.1
				C211.3,64.7,215.6,68.4,220.7,68.4z"/>
		</g>
		<g>
			<path class="st1" d="M248.8,46.3h-4.5v-7.8h4.5v-9.3h9.6v9.3h8.4v7.8h-8.4v18.2c0,2.5,1,3.6,4,3.6h4.4v8h-6
				c-7.2,0-12-3.1-12-11.7V46.3z"/>
		</g>
		<g>
			<path class="st1" d="M290,76.6c-10.9,0-18.8-7.6-18.8-19.4c0-11.9,7.7-19.4,18.8-19.4c10.8,0,18.5,7.4,18.5,18.6
				c0,1.2-0.1,2.4-0.3,3.7h-27.5c0.5,5.6,4.3,8.7,9,8.7c4.1,0,6.3-2,7.5-4.5h10.2C305.5,71.2,299.3,76.6,290,76.6z M280.9,53.7h17.8
				c-0.1-4.9-4.1-8.1-8.9-8.1C285.2,45.7,281.6,48.6,280.9,53.7z"/>
		</g>
		<g>
			<path class="st1" d="M324.9,76h-9.5V38.5h9.5v5.8c2.4-3.9,6.3-6.4,11.5-6.4v10H334c-5.6,0-9,2.2-9,9.4V76z"/>
		</g>
	</g>
</g>
</svg>
