<?xml version="1.0" encoding="utf-8"?>
<!-- Generator: Adobe Illustrator 23.0.5, SVG Export Plug-In . SVG Version: 6.00 Build 0)  -->
<svg version="1.1" id="Layer_1" xmlns="http://www.w3.org/2000/svg" xmlns:xlink="http://www.w3.org/1999/xlink" x="0px" y="0px"
	 viewBox="0 0 63.9 60.5" style="enable-background:new 0 0 63.9 60.5;" xml:space="preserve">
<style type="text/css">
	.st0{fill:#0E0216;}
	.st1{fill:#F15A24;}
</style>
<g>
	<g>
		
			<image style="overflow:visible;opacity:0.75;" width="284" height="284" xlink:href="24E61D6C.png"  transform="matrix(0.24 0 0 0.24 4.8664 3.1383)">
		</image>
		<g>
			<path class="st0" d="M32,49.3L32,49.3c-10.5,0-19-8.5-19-19v0c0-10.5,8.5-19,19-19h0c10.5,0,19,8.5,19,19v0
				C51,40.8,42.5,49.3,32,49.3z"/>
		</g>
	</g>
	<path class="st1" d="M41.5,29.6c-0.5,5-4.8,8.6-9.8,8.1s-8.6-4.8-8.1-9.8c0.4-4.3,3.8-7.7,8.1-8.1c-2.3,3.1-1.6,7.5,1.5,9.8
		C35.6,31.4,39,31.4,41.5,29.6z"/>
</g>
</svg>
