<?xml version="1.0" encoding="utf-8"?>
<!-- Generator: Adobe Illustrator 23.0.5, SVG Export Plug-In . SVG Version: 6.00 Build 0)  -->
<svg version="1.1" id="Layer_1" xmlns="http://www.w3.org/2000/svg" xmlns:xlink="http://www.w3.org/1999/xlink" x="0px" y="0px"
	 viewBox="0 0 44.6 45.3" style="enable-background:new 0 0 44.6 45.3;" xml:space="preserve">
<style type="text/css">
	.st0{fill:#190625;}
</style>
<g>
	<g>
		<path class="st0" d="M39.2,12.9H5.4c-0.8,0-1.5-0.7-1.5-1.5s0.7-1.5,1.5-1.5h33.8c0.8,0,1.5,0.7,1.5,1.5S40.1,12.9,39.2,12.9z"/>
	</g>
	<g>
		<path class="st0" d="M31.7,43H12.9c-2.9,0-5.3-2.4-5.3-5.3V11.3c0-0.8,0.7-1.5,1.5-1.5c0.8,0,1.5,0.7,1.5,1.5v26.3
			c0,1.2,1,2.2,2.2,2.2h18.8c1.2,0,2.2-1,2.2-2.2V11.3c0-0.8,0.7-1.5,1.5-1.5c0.8,0,1.5,0.7,1.5,1.5v26.3C37,40.6,34.6,43,31.7,43z
			 M29.8,12.9c-0.8,0-1.5-0.7-1.5-1.5V7.6c0-1.2-1-2.2-2.2-2.2h-7.5c-1.2,0-2.2,1-2.2,2.2v3.8c0,0.8-0.7,1.5-1.5,1.5
			c-0.8,0-1.5-0.7-1.5-1.5V7.6c0-2.9,2.4-5.3,5.3-5.3h7.5c2.9,0,5.3,2.4,5.3,5.3v3.8C31.4,12.2,30.7,12.9,29.8,12.9z"/>
	</g>
	<g>
		<path class="st0" d="M18.5,33.6c-0.8,0-1.5-0.7-1.5-1.5V20.7c0-0.8,0.7-1.5,1.5-1.5c0.8,0,1.5,0.7,1.5,1.5V32
			C20.1,32.9,19.4,33.6,18.5,33.6z"/>
	</g>
	<g>
		<path class="st0" d="M26.1,33.6c-0.8,0-1.5-0.7-1.5-1.5V20.7c0-0.8,0.7-1.5,1.5-1.5c0.8,0,1.5,0.7,1.5,1.5V32
			C27.6,32.9,26.9,33.6,26.1,33.6z"/>
	</g>
</g>
</svg>
