<?xml version="1.0" encoding="utf-8"?>
<!-- Generator: Adobe Illustrator 23.0.5, SVG Export Plug-In . SVG Version: 6.00 Build 0)  -->
<svg version="1.1" id="Layer_1" xmlns="http://www.w3.org/2000/svg" xmlns:xlink="http://www.w3.org/1999/xlink" x="0px" y="0px"
	 viewBox="0 0 44.6 45.3" style="enable-background:new 0 0 44.6 45.3;" xml:space="preserve">
<style type="text/css">
	.st0{fill:#E5E4BE;}
</style>
<g>
	<path class="st0" d="M22.3,40L7.1,24.8c-4.5-4.5-4.5-11.7,0-16.2c2.2-2.2,5-3.3,8.1-3.3c2.6,0,5.1,0.9,7.1,2.4
		c2-1.6,4.5-2.4,7.1-2.4c0,0,0,0,0,0c3.1,0,5.9,1.2,8.1,3.3l0,0c2.2,2.2,3.3,5,3.3,8.1c0,3.1-1.2,5.9-3.3,8.1L22.3,40z M15.2,12.4
		c-1.1,0-2.2,0.4-3,1.3c-1.7,1.7-1.7,4.4,0,6.1l10.1,10.1l10.1-10.1c0.8-0.8,1.3-1.9,1.3-3c0-1.1-0.4-2.2-1.3-3l0,0
		c-1.7-1.7-4.4-1.7-6.1,0l-4,4l-4-4C17.4,12.9,16.3,12.4,15.2,12.4z"/>
</g>
</svg>
