<?xml version="1.0" encoding="utf-8"?>
<!-- Generator: Adobe Illustrator 23.0.5, SVG Export Plug-In . SVG Version: 6.00 Build 0)  -->
<svg version="1.1" id="Layer_1" xmlns="http://www.w3.org/2000/svg" xmlns:xlink="http://www.w3.org/1999/xlink" x="0px" y="0px"
	 viewBox="0 0 52.1 52.1" style="enable-background:new 0 0 52.1 52.1;" xml:space="preserve">
<style type="text/css">
	.st0{fill:#F15A24;}
</style>
<g>
	<path class="st0" d="M4.5,49.8c-0.6,0-1.2-0.2-1.6-0.7c-0.6-0.6-0.8-1.4-0.6-2.2l3.3-12c0.1-0.4,0.3-0.7,0.6-1L35.5,4.7
		c3.3-3.3,8.6-3.3,11.8,0c3.3,3.3,3.3,8.6,0,11.8L18,45.9c-0.3,0.3-0.6,0.5-1,0.6l-12,3.3C4.9,49.8,4.7,49.8,4.5,49.8z M9.7,36.8
		l-2.1,7.6l7.6-2.1l28.9-28.9c1.5-1.5,1.5-4,0-5.6c-1.5-1.5-4.1-1.5-5.6,0L9.7,36.8z"/>
</g>
</svg>
